<svg width="143" height="122" viewBox="0 0 143 122" fill="none" xmlns="http://www.w3.org/2000/svg">
<path d="M95.7604 43.1651L97.8704 24.9651L84.7804 33.9451L72.8904 24.2051L60.8904 33.9651L46.8504 24.9651L49.0504 43.1651H95.7704H95.7604ZM97.9804 48.7051H46.0804C32.8504 48.7051 22.1304 59.0251 22.1304 72.0851V72.8751C22.1304 85.9351 32.8504 97.1451 46.0804 97.1451H97.9804C111.21 97.1451 120.76 85.9351 120.76 72.8751V72.0851C120.76 59.0251 111.21 48.7051 97.9804 48.7051ZM98.2704 88.8351H46.7104C37.9504 88.8351 30.0504 81.0751 30.0504 72.2251C30.0504 63.3751 37.9504 55.6151 46.7104 55.6151H98.2704C107.03 55.6151 114.14 63.3751 114.14 72.2251C114.14 81.0751 107.04 88.8351 98.2704 88.8351ZM51.6104 67.3351C48.5404 67.3351 46.0604 69.8451 46.0604 72.9451C46.0604 76.0451 48.5504 78.5551 51.6104 78.5551C54.6704 78.5551 57.1604 76.0451 57.1604 72.9451C57.1604 69.8451 54.6704 67.3351 51.6104 67.3351ZM92.8504 67.3351C89.7804 67.3351 87.3004 69.8451 87.3004 72.9451C87.3004 76.0451 89.7904 78.5551 92.8504 78.5551C95.9104 78.5551 98.4004 76.0451 98.4004 72.9451C98.4004 69.8451 95.9104 67.3351 92.8504 67.3351Z" fill="#241A17"/>
</svg>
